<?xml version="1.0" encoding="UTF-8"?>
<svg version="1.1" xmlns="http://www.w3.org/2000/svg" width="477" height="597">
<path d="M0 0 C36.43420459 32.37552063 53.41199661 73.55872416 61.94824219 120.77246094 C66.12330931 143.83321662 70.93318787 165.75032091 79.15942383 187.7121582 C80.46257347 191.20990372 81.7298463 194.72071803 83.00292969 198.22949219 C84.47284716 202.27379019 85.94777966 206.3158401 87.45361328 210.34692383 C88.10837646 212.10057251 88.10837646 212.10057251 88.77636719 213.88964844 C89.16195801 214.91550049 89.54754883 215.94135254 89.94482422 216.99829102 C92.47381413 224.15378357 93.26781693 231.94281475 91.12792969 239.32324219 C87.5667596 246.69636899 81.46071941 249.86721698 74.09277344 252.79589844 C52.19630584 260.15152114 28.25009372 261.81388389 5.39355469 263.87011719 C4.46881348 263.95406738 3.54407227 264.03801758 2.59130859 264.12451172 C-2.99612432 264.59823108 -8.49901351 264.75669911 -14.10644531 264.68261719 C-13.14212455 262.99505586 -12.13327961 261.33288659 -11.10644531 259.68261719 C-10.64753906 258.82152344 -10.18863281 257.96042969 -9.71582031 257.07324219 C-5.5645123 253.26994802 -1.05823165 253.81015157 4.39355469 253.62011719 C28.9908807 252.23179549 53.54996109 248.79714615 76.89355469 240.68261719 C76.89355469 240.02261719 76.89355469 239.36261719 76.89355469 238.68261719 C76.00925781 238.41328369 75.12496094 238.1439502 74.21386719 237.86645508 C71.09025336 236.75274894 68.58368473 235.47349519 65.76855469 233.74121094 C64.34820923 232.8721814 64.34820923 232.8721814 62.89916992 231.9855957 C61.90731689 231.36998779 60.91546387 230.75437988 59.89355469 230.12011719 C58.86625244 229.48968506 57.8389502 228.85925293 56.78051758 228.2097168 C51.80907822 225.14859361 46.87082272 222.04673584 41.99365234 218.83764648 C23.8604232 206.92190486 7.21545975 203.75600993 -13.91894531 201.68261719 C-14.74437836 201.5999057 -15.5698114 201.51719421 -16.42025757 201.43197632 C-29.90449905 200.08635455 -43.40305562 198.96883204 -56.91894531 197.99511719 C-57.7345694 197.93445068 -58.55019348 197.87378418 -59.39053345 197.8112793 C-88.25605295 195.69099663 -117.23802152 195.47174322 -146.16894531 195.49511719 C-146.91837276 195.49538406 -147.66780022 195.49565094 -148.43993759 195.4959259 C-198.46874289 195.51812437 -248.4098482 197.63658099 -298.10644531 203.68261719 C-299.32154785 203.82425293 -300.53665039 203.96588867 -301.78857422 204.11181641 C-312.09224863 205.47065719 -319.72145604 209.20259282 -328.41894531 214.68261719 C-329.98879197 215.65602512 -331.55912338 216.62865162 -333.12988281 217.60058594 C-333.94038086 218.10380371 -334.75087891 218.60702148 -335.5859375 219.12548828 C-367.24285171 238.68261719 -367.24285171 238.68261719 -371.10644531 238.68261719 C-371.10644531 239.34261719 -371.10644531 240.00261719 -371.10644531 240.68261719 C-350.01872613 247.22018686 -328.50832058 252.0944035 -306.39160156 252.98730469 C-305.27011719 253.04305664 -304.14863281 253.09880859 -302.99316406 253.15625 C-300.83963332 253.2543103 -298.6840065 253.31588626 -296.52832031 253.33398438 C-292.00884201 253.54278072 -289.17217465 253.80427112 -285.60986328 256.74023438 C-280.10644531 262.83636527 -280.10644531 262.83636527 -280.10644531 264.68261719 C-358.65101732 262.83884789 -358.65101732 262.83884789 -380.10644531 245.68261719 C-381.91486518 243.38491662 -382.90896589 241.38996197 -384.10644531 238.68261719 C-384.43644531 238.02261719 -384.76644531 237.36261719 -385.10644531 236.68261719 C-387.70406398 221.63249665 -379.62797733 206.1584146 -374.33691406 192.49121094 C-373.86358643 191.26466797 -373.39025879 190.038125 -372.90258789 188.77441406 C-371.99603677 186.44332711 -371.07660086 184.11718195 -370.14038086 181.79785156 C-363.24771088 164.24501049 -359.53634596 145.79080701 -356.20822144 127.28747559 C-351.77382668 102.78450229 -346.62230688 79.38460683 -336.10644531 56.68261719 C-335.63851562 55.62558594 -335.17058594 54.56855469 -334.68847656 53.47949219 C-327.88231513 38.86919844 -317.99559011 25.50223455 -307.10644531 13.68261719 C-306.6265918 13.15361816 -306.14673828 12.62461914 -305.65234375 12.07958984 C-293.30034647 -1.40083155 -278.318229 -11.94635443 -262.10644531 -20.31738281 C-261.38247559 -20.69958984 -260.65850586 -21.08179687 -259.91259766 -21.47558594 C-236.98141898 -33.46611732 -212.58387357 -40.28345667 -187.10644531 -44.31738281 C-186.32398438 -44.44193848 -185.54152344 -44.56649414 -184.73535156 -44.69482422 C-122.75560236 -54.29031291 -48.87975997 -41.82439822 0 0 Z M-294.39941406 19.63574219 C-321.2006845 49.22736349 -334.16828213 85.39564652 -341.06347656 124.15527344 C-341.83412627 128.43529899 -342.80602911 132.53423065 -344.10644531 136.68261719 C-343.32672363 136.57715576 -342.54700195 136.47169434 -341.74365234 136.36303711 C-295.66227018 130.22750848 -249.5609851 128.55001622 -203.10644531 128.68261719 C-203.10644531 129.67261719 -203.10644531 130.66261719 -203.10644531 131.68261719 C-204.00693604 131.72435059 -204.90742676 131.76608398 -205.83520508 131.80908203 C-217.6452862 132.44338874 -229.31763589 133.79140172 -241.04394531 135.30761719 C-242.06300964 135.43855774 -243.08207397 135.56949829 -244.13201904 135.70440674 C-296.28844571 141.96359459 -296.28844571 141.96359459 -347.10644531 154.68261719 C-348.03135761 157.49825157 -348.77865375 160.24686877 -349.48144531 163.12011719 C-352.56625467 174.84114172 -356.90235387 185.99424184 -361.34814453 197.2487793 C-364.09172994 204.2218811 -366.69521798 211.20093352 -368.94628906 218.35058594 C-369.25428185 219.32322136 -369.25428185 219.32322136 -369.5684967 220.31550598 C-370.72288699 224.07945849 -371.54699102 227.78664486 -372.10644531 231.68261719 C-371.59855469 231.29589844 -371.09066406 230.90917969 -370.56738281 230.51074219 C-366.49312548 227.42834526 -362.389966 224.46690564 -358.10644531 221.68261719 C-358.76644531 221.35261719 -359.42644531 221.02261719 -360.10644531 220.68261719 C-360.76644531 221.01261719 -361.42644531 221.34261719 -362.10644531 221.68261719 C-358.95420351 211.29876185 -354.33449951 201.49327918 -349.79003906 191.65917969 C-342.15392296 176.28514781 -342.15392296 176.28514781 -339.10644531 159.68261719 C-338.18992187 159.64394531 -338.18992187 159.64394531 -337.25488281 159.60449219 C-326.39060942 158.93121327 -315.77946296 156.73260015 -305.10644531 154.68261719 C-305.43257813 155.68679687 -305.75871094 156.69097656 -306.09472656 157.72558594 C-306.53733817 159.10671065 -306.97864984 160.48825236 -307.41894531 161.87011719 C-307.6496875 162.59247559 -307.88042969 163.31483398 -308.11816406 164.05908203 C-309.54273301 168.60989955 -310.6701712 173.12624663 -311.60644531 177.80761719 C-312.73956545 183.08022822 -314.19827435 185.98569871 -318.10644531 189.68261719 C-317.57204834 189.54041748 -317.03765137 189.39821777 -316.48706055 189.25170898 C-310.62990132 187.80687976 -305.18603792 187.40545071 -299.16894531 187.49511719 C-298.32009766 187.49576172 -297.47125 187.49640625 -296.59667969 187.49707031 C-290.38864114 187.54151928 -290.38864114 187.54151928 -288.10644531 188.68261719 C-292.06644531 189.67261719 -292.06644531 189.67261719 -296.10644531 190.68261719 C-296.10644531 191.01261719 -296.10644531 191.34261719 -296.10644531 191.68261719 C-287.80289097 191.25038824 -279.57137945 190.56226246 -271.31738281 189.56152344 C-270.44172668 189.45625336 -269.56607056 189.35098328 -268.66387939 189.24252319 C-265.06577352 188.80768217 -261.468145 188.37004744 -257.87255859 187.91479492 C-224.75523104 183.74798108 -191.51192036 183.34868471 -158.17944336 183.421875 C-152.97821993 183.43323094 -147.77720222 183.42650748 -142.57598591 183.41498947 C-105.00231795 183.34466945 -67.44825894 184.22803485 -30.10644531 188.68261719 C-29.22724426 188.78701111 -28.34804321 188.89140503 -27.44219971 188.9989624 C-21.42235742 189.71781668 -15.40629433 190.46292838 -9.39273071 191.23254395 C-7.39299771 191.48780421 -5.39281921 191.73960194 -3.3921814 191.9876709 C16.9386858 194.52830631 16.9386858 194.52830631 25.89355469 198.68261719 C26.71001465 199.04911377 27.52647461 199.41561035 28.36767578 199.79321289 C30.83978001 200.93932611 33.27469915 202.14010302 35.70605469 203.37011719 C36.56118652 203.79856934 37.41631836 204.22702148 38.29736328 204.66845703 C44.36002446 207.76165151 50.12987058 211.1614324 55.75610352 214.98999023 C58.56710736 217.06156684 58.56710736 217.06156684 61.89355469 217.68261719 C62.51659215 209.50525045 60.32837063 203.32011509 57.39355469 195.74511719 C56.54739393 193.50774619 55.70352002 191.26950853 54.86230469 189.03027344 C54.48525391 188.0506665 54.10820312 187.07105957 53.71972656 186.06176758 C52.89355469 183.68261719 52.89355469 183.68261719 52.89355469 181.68261719 C53.36027588 182.62391479 53.36027588 182.62391479 53.83642578 183.58422852 C60.3789446 196.76410266 67.0110337 209.88334691 73.93896484 222.86523438 C74.95073992 224.79148852 75.9265565 226.7335535 76.89355469 228.68261719 C78.01606769 225.33663733 77.75914819 223.31613697 76.74121094 219.96386719 C76.4635791 219.04250977 76.18594727 218.12115234 75.89990234 217.171875 C75.58843262 216.18541992 75.27696289 215.19896484 74.95605469 214.18261719 C74.63685059 213.15233398 74.31764648 212.12205078 73.98876953 211.06054688 C71.66990993 203.73795091 69.05638492 196.59024184 65.97729492 189.55273438 C63.88427093 184.65298998 62.43066517 179.92713402 61.29980469 174.71386719 C58.80371304 162.3927372 58.80371304 162.3927372 51.38574219 152.80322266 C45.04911318 149.72991489 38.34676972 148.44505325 31.43847656 147.29492188 C28.01298222 146.70324558 24.68586796 145.9438439 21.31542969 145.09667969 C-7.35837477 137.9712049 -36.80036797 134.84239012 -66.11816406 131.69824219 C-66.93380325 131.6099263 -67.74944244 131.52161041 -68.58979797 131.43061829 C-75.41841785 130.71087035 -82.25877536 130.1854769 -89.10644531 129.68261719 C-0.70952629 128.90864762 -0.70952629 128.90864762 39.83154297 135.3671875 C43.17690693 135.87893392 46.53367822 136.27836417 49.89355469 136.68261719 C47.01767469 103.49938644 36.63919938 66.79675856 16.89355469 39.68261719 C16.34441406 38.9259375 15.79527344 38.16925781 15.22949219 37.38964844 C-16.73216218 -5.00697528 -63.50991277 -27.54304187 -115.36621094 -34.95751953 C-125.31182611 -36.26363471 -135.21001797 -36.55915859 -145.23144531 -36.56738281 C-145.97633209 -36.56805756 -146.72121887 -36.5687323 -147.48867798 -36.56942749 C-201.28106737 -36.49262121 -256.33526156 -19.85510269 -294.39941406 19.63574219 Z " fill="#F4F4F4" transform="translate(385.1064453125,47.3173828125)"/>
<path d="M0 0 C8.85357856 -0.65817478 16.51768055 -0.29849442 23.85058594 5.18310547 C30.30447084 10.86828944 33.27720416 19.92544332 36.29199219 27.76123047 C36.77198418 28.99687241 36.77198418 28.99687241 37.26167297 30.25747681 C38.31706772 32.98081236 39.3655873 35.70672377 40.41308594 38.43310547 C40.77863586 39.38106995 41.14418579 40.32903442 41.52081299 41.3057251 C49.83275962 62.87702441 57.75244626 84.59004727 65.63221741 106.32214355 C67.89276915 112.55495358 70.16680245 118.78253156 72.45996094 125.00341797 C72.85835678 126.08488602 72.85835678 126.08488602 73.26480103 127.1882019 C74.44720687 130.39682589 75.63165068 133.60466749 76.81884766 136.81152344 C77.21346191 137.88289551 77.60807617 138.95426758 78.01464844 140.05810547 C78.34932129 140.96302734 78.68399414 141.86794922 79.02880859 142.80029297 C81.42689697 149.75375185 82.08061985 156.81189152 79.41308594 163.80810547 C71.98919206 178.34975327 52.23762069 185.71565496 37.65527344 190.67919922 C22.35509417 195.60884385 2.74707241 201.24798093 -12.33691406 193.55810547 C-20.0810537 187.01860977 -23.35680347 178.52299998 -26.89657593 169.28573608 C-28.10528302 166.13242455 -29.34187149 162.99025921 -30.57627869 159.84693909 C-31.20616892 158.24189519 -31.83463642 156.63629222 -32.46168518 155.03013611 C-35.16613298 148.10629494 -37.97729289 141.23198633 -40.83691406 134.37060547 C-41.30274902 133.24887939 -41.76858398 132.12715332 -42.24853516 130.97143555 C-43.27589084 128.4979413 -44.30379465 126.02468224 -45.33251953 123.55175781 C-48.77462689 115.27632072 -52.21158057 106.9987637 -55.64126587 98.71817017 C-56.4638039 96.73393958 -57.28746715 94.75017497 -58.11239624 92.76693726 C-62.4238155 82.4013919 -66.65651435 72.01384307 -70.66503906 61.52685547 C-71.00259216 60.64557983 -71.34014526 59.7643042 -71.68792725 58.85632324 C-71.99780579 58.03796997 -72.30768433 57.2196167 -72.62695312 56.37646484 C-72.89799866 55.66083374 -73.16904419 54.94520264 -73.44830322 54.20788574 C-76.23904358 46.14833837 -75.87148289 38.85579122 -72.14941406 31.18310547 C-66.40513218 19.45519663 -48.74019543 13.49188005 -37.14941406 9.18310547 C-35.48971589 8.81664831 -33.82393853 8.47440717 -32.14941406 8.18310547 C-33.40169372 13.1922241 -34.98780423 15.19528303 -39.14941406 18.18310547 C-40.71371654 21.31171042 -40.5056869 23.73913472 -40.14941406 27.18310547 C-38.00291487 29.88353994 -36.41888621 30.98109182 -32.98925781 31.52685547 C-28.25410203 31.7165779 -24.93032267 31.27657615 -21.14941406 28.18310547 C-18.65485489 24.44126671 -18.77334884 22.62067511 -19.14941406 18.18310547 C-19.72691406 17.23435547 -20.30441406 16.28560547 -20.89941406 15.30810547 C-22.2591879 11.90867087 -22.30550031 10.9216334 -21.33691406 7.49560547 C-19.60204663 4.11688005 -18.4655726 3.30293671 -14.87207031 1.94091797 C-9.96613946 0.7862514 -5.00834419 0.42665358 0 0 Z " fill="#FCFCFC" transform="translate(296.1494140625,382.81689453125)"/>
<path d="M0 0 C1.9375 3.3125 1.9375 3.3125 2 7 C0.69593116 9.01920337 -0.63823419 11.01924973 -2 13 C-1.85471308 17.28596411 -1.38479482 19.42280778 1 23 C2.485 23.495 2.485 23.495 4 24 C3.731875 24.78375 3.46375 25.5675 3.1875 26.375 C2.795625 27.57125 2.40375 28.7675 2 30 C1.73574219 30.76183594 1.47148437 31.52367187 1.19921875 32.30859375 C-3.9522514 47.95832061 1.82654156 62.9875566 6.99609375 77.9921875 C7.35461929 79.03900192 7.71314484 80.08581635 8.08253479 81.16435242 C9.57398828 85.50567526 11.07061389 89.84438842 12.61010742 94.16894531 C13.74551248 97.37204304 14.84215143 100.58638792 15.93359375 103.8046875 C16.46296791 105.24725418 16.46296791 105.24725418 17.0030365 106.71896362 C19.45759421 114.10155908 18.57459364 118.7841715 16 126 C15.40429327 127.9731308 14.81728503 129.94890532 14.23828125 131.92700195 C13.59839623 134.03138374 12.95638867 136.13512103 12.3125 138.23828125 C11.96872314 139.36268112 11.62494629 140.48708099 11.27075195 141.64555359 C10.54898734 144.00301418 9.82623672 146.36017311 9.10253906 148.71704102 C7.9982197 152.3183057 6.90141907 155.92180903 5.8046875 159.52539062 C5.09942083 161.82566269 4.39370723 164.12579778 3.6875 166.42578125 C3.36241455 167.49774246 3.0373291 168.56970367 2.70239258 169.67414856 C0.05857656 178.2346008 -2.31844055 184.92388176 -10 190 C-24.97592307 197.67480127 -45.14797607 191.15286331 -60.1875 186.3125 C-74.49340199 181.43613292 -89.67795372 174.38554163 -98.625 161.6875 C-101.95198115 152.76514147 -99.93277966 144.04176667 -96.625 135.4375 C-96.26776855 134.46135742 -95.91053711 133.48521484 -95.54248047 132.47949219 C-94.37912692 129.31289083 -93.18950002 126.15686037 -92 123 C-91.19587562 120.81976212 -90.39381504 118.63876202 -89.59375 116.45703125 C-87.5031522 110.76760377 -85.38879332 105.08731078 -83.26904297 99.40869141 C-82.03794683 96.10192644 -80.81594923 92.79196973 -79.59765625 89.48046875 C-72.89062307 71.25928581 -66.00830803 53.10722669 -59 35 C-58.75127136 34.35671753 -58.50254272 33.71343506 -58.24627686 33.05065918 C-56.65729807 28.94488472 -55.05207784 24.84576811 -53.4375 20.75 C-52.84775391 19.2338208 -52.84775391 19.2338208 -52.24609375 17.68701172 C-48.31633625 7.80974362 -44.10569957 1.42124356 -34 -3 C-24.63962923 -5.60388496 -8.48467384 -4.63873818 0 0 Z " fill="#FCFCFC" transform="translate(199,386)"/>
<path d="M0 0 C2.02840773 2.02840773 2.58406388 3.13501695 3.57226562 5.75610352 C3.86597046 6.52773331 4.15967529 7.2993631 4.46228027 8.09437561 C4.77379028 8.93077072 5.08530029 9.76716583 5.40625 10.62890625 C5.73161743 11.49257309 6.05698486 12.35623993 6.39221191 13.24607849 C7.08076197 15.07847913 7.7665179 16.91193175 8.44970703 18.74633789 C9.48792702 21.53012858 10.53821219 24.30914316 11.58984375 27.08789062 C12.25855217 28.87211879 12.92654331 30.65661597 13.59375 32.44140625 C13.90526001 33.26363174 14.21677002 34.08585724 14.53771973 34.93299866 C14.83142456 35.72669357 15.12512939 36.52038849 15.42773438 37.33813477 C15.81173401 38.36500145 15.81173401 38.36500145 16.20349121 39.41261292 C17.37252136 43.21010211 18.13805813 47.12126156 19 51 C38.47 51.99 57.94 52.98 78 54 C76.08054774 57.83890452 75.33628513 58.79908923 72.0625 61.1796875 C71.25804443 61.77241455 70.45358887 62.3651416 69.62475586 62.97583008 C68.75858643 63.60255615 67.89241699 64.22928223 67 64.875 C65.18770559 66.20814611 63.3765329 67.54281827 61.56640625 68.87890625 C60.64359863 69.55840332 59.72079102 70.23790039 58.77001953 70.93798828 C53.66229892 74.74019243 48.65974991 78.67666131 43.65039062 82.60693359 C42.59948242 83.42991943 42.59948242 83.42991943 41.52734375 84.26953125 C40.91624756 84.75010986 40.30515137 85.23068848 39.67553711 85.72583008 C38.16104754 86.87753066 36.58310396 87.94459736 35 89 C35.59276541 95.57102147 37.19761657 101.46369605 39.1953125 107.73828125 C39.83471098 109.79489838 40.47403164 111.85153971 41.11328125 113.90820312 C42.12254178 117.12623896 43.13472214 120.34333314 44.14892578 123.55981445 C45.13002437 126.67957533 46.10061253 129.80246217 47.0703125 132.92578125 C47.37856964 133.89139481 47.68682678 134.85700836 48.00442505 135.85188293 C48.28156342 136.7467894 48.55870178 137.64169586 48.84423828 138.5637207 C49.09215118 139.35011429 49.34006409 140.13650787 49.5954895 140.94673157 C50 143 50 143 49 146 C47.94167969 145.27039063 46.88335937 144.54078125 45.79296875 143.7890625 C36.35590879 137.29824272 26.88457694 130.85692679 17.37661743 124.47039795 C16.16949911 123.65834207 14.96374096 122.84426056 13.7593689 122.02813721 C12.05291487 120.87251795 10.34159269 119.72448024 8.62890625 118.578125 C7.63963135 117.91200195 6.65035645 117.24587891 5.63110352 116.55957031 C2.5006205 114.63754872 2.5006205 114.63754872 -1 114 C-3.32861111 115.17947313 -3.32861111 115.17947313 -5.6171875 117.015625 C-6.49729492 117.66595703 -7.37740234 118.31628906 -8.28417969 118.98632812 C-9.18040039 119.65083984 -10.07662109 120.31535156 -11 121 C-12.66130922 122.13156978 -14.33048239 123.25169175 -16.0078125 124.359375 C-16.84223877 124.91286621 -17.67666504 125.46635742 -18.53637695 126.03662109 C-19.39062256 126.60203613 -20.24486816 127.16745117 -21.125 127.75 C-30.14787372 133.74155647 -39.09812217 139.8303817 -48 146 C-49.19349328 142.41952017 -48.71541698 141.26289834 -47.64477539 137.70239258 C-47.32436783 136.62149857 -47.00396027 135.54060455 -46.67384338 134.42695618 C-46.14113075 132.67840584 -46.14113075 132.67840584 -45.59765625 130.89453125 C-45.24110458 129.70018967 -44.88455292 128.50584808 -44.51719666 127.27531433 C-43.56821089 124.10216141 -42.61177204 120.93145207 -41.65167236 117.76165771 C-40.67360821 114.52593008 -39.70538186 111.28726324 -38.73632812 108.04882812 C-36.83329231 101.69646512 -34.92037862 95.34714023 -33 89 C-33.78510452 88.69660706 -34.57020905 88.39321411 -35.37910461 88.08062744 C-37.91159056 87.0364523 -39.65975706 85.92794277 -41.79296875 84.234375 C-42.49728027 83.68048096 -43.2015918 83.12658691 -43.92724609 82.5559082 C-44.67312988 81.9599585 -45.41901367 81.36400879 -46.1875 80.75 C-47.78763379 79.48812066 -49.38789821 78.22640696 -50.98828125 76.96484375 C-51.81021973 76.31370605 -52.6321582 75.66256836 -53.47900391 74.99169922 C-57.59266594 71.74172296 -61.73456995 68.52825243 -65.875 65.3125 C-66.62934326 64.72500977 -67.38368652 64.13751953 -68.16088867 63.53222656 C-68.86834229 62.98147461 -69.5757959 62.43072266 -70.3046875 61.86328125 C-71.2325708 61.14072144 -71.2325708 61.14072144 -72.17919922 60.40356445 C-73.5035192 59.38271227 -74.85888314 58.40175189 -76.23095703 57.44604492 C-76.81474121 56.9688501 -77.39852539 56.49165527 -78 56 C-78 55.34 -78 54.68 -78 54 C-59.19 53.01 -40.38 52.02 -21 51 C-16.0167192 39.1647081 -11.12656727 27.36646159 -6.5625 15.375 C-5.77234189 13.30104607 -4.98121685 11.22749026 -4.18675232 9.15518188 C-3.48462795 7.32368184 -2.78625762 5.4907439 -2.08813477 3.65771484 C-1 1 -1 1 0 0 Z " fill="#F9F9FA" transform="translate(238,40)"/>
<path d="M0 0 C12.92646631 10.90239329 17.62847327 30.31121918 23.5625 45.625 C24.26482682 47.43270599 24.9673873 49.24032121 25.67016602 51.04785156 C26.75924469 53.84902565 27.84813992 56.65026947 28.93611145 59.45187378 C31.3429718 65.64826678 33.76257168 71.83953399 36.19140625 78.02734375 C39.8530912 87.35843652 43.4906138 96.6987336 47.11358643 106.04492188 C48.24391888 108.95789685 49.37752794 111.86958512 50.51123047 114.78125 C52.49428099 119.8794289 54.46184286 124.98337933 56.41995239 130.09118652 C57.17118234 132.04483787 57.92681628 133.99680248 58.68722534 135.94689941 C69.90999023 164.75828979 69.90999023 164.75828979 64.33203125 178.99609375 C56.42508651 196.06863973 35.34019113 205.96399634 18.53515625 212.3984375 C-2.21955044 219.48198934 -28.90793322 226.17781355 -50.25390625 218.0703125 C-60.26253399 213.15004054 -65.70859211 206.24410107 -69.4921875 195.84765625 C-70.02152955 194.40706367 -70.55133869 192.96664265 -71.08154297 191.52636719 C-71.36173279 190.76102661 -71.64192261 189.99568604 -71.93060303 189.20715332 C-73.46879828 185.03042464 -75.04900359 180.86960996 -76.625 176.70703125 C-77.30754212 174.90058652 -77.98999462 173.09410792 -78.67236328 171.28759766 C-79.38570876 169.40005247 -80.09908849 167.51252023 -80.8125 165.625 C-81.1824408 164.64617859 -81.55238159 163.66735718 -81.93353271 162.65887451 C-83.45998374 158.62012419 -84.98645917 154.58138312 -86.51315308 150.54272461 C-88.55261674 145.14732158 -90.59075074 139.75142106 -92.6267395 134.35470581 C-93.78163188 131.29380698 -94.93732676 128.23321168 -96.09332275 125.17272949 C-96.65552184 123.68412745 -97.21749336 122.19543944 -97.77923584 120.70666504 C-101.10277623 111.90127207 -104.46427455 103.11185817 -107.875 94.33984375 C-108.55977931 92.57472497 -109.24451271 90.80958837 -109.92919922 89.04443359 C-111.22590939 85.70212741 -112.53064644 82.36311837 -113.84033203 79.02587891 C-125.13655067 50.06377768 -125.13655067 50.06377768 -120.26953125 35.1015625 C-115.16653627 23.58220118 -103.6042914 16.41231036 -92.8125 10.8125 C-91.58660156 10.17175537 -91.58660156 10.17175537 -90.3359375 9.51806641 C-71.37247164 -0.1875 -71.37247164 -0.1875 -63.8125 -0.1875 C-63.8125 3.1125 -63.8125 6.4125 -63.8125 9.8125 C-65.4716797 10.64208985 -67.13089791 11.47160273 -68.7902832 12.30078125 C-70.23738517 13.02474358 -71.68382423 13.75003229 -73.12963867 14.4765625 C-76.60766226 16.22222698 -80.08904387 17.9539441 -83.60546875 19.62109375 C-98.55532229 26.44541652 -98.55532229 26.44541652 -108.2421875 39.0078125 C-111.15074546 48.2116055 -109.45038655 54.83102727 -106.125 63.625 C-105.72780762 64.70177002 -105.33061523 65.77854004 -104.92138672 66.88793945 C-100.95248024 77.58860009 -96.84632829 88.23916988 -92.7487793 98.89111328 C-89.22349718 108.06358441 -85.79188513 117.26337813 -82.4375 126.5 C-78.08530957 138.46629116 -73.57413725 150.36691417 -69 162.25 C-68.68516663 163.06866547 -68.37033325 163.88733093 -68.04595947 164.73080444 C-66.26062532 169.36994959 -64.46515388 174.00499068 -62.65863037 178.63592529 C-61.82270768 180.7862419 -60.99629691 182.94005084 -60.17041016 185.09423828 C-59.65179878 186.42887873 -59.13277723 187.76335988 -58.61328125 189.09765625 C-58.16766846 190.25273682 -57.72205566 191.40781738 -57.26293945 192.59790039 C-54.04805359 199.7230312 -50.38671531 204.25765875 -43.17578125 207.39453125 C-21.96374074 215.07276022 5.44873907 204.01030206 24.51416016 195.12207031 C36.96263587 189.02402248 48.15389864 182.71315789 53.5625 169.4375 C55.10999142 160.46204976 52.47612403 153.19331968 49.16723633 144.88598633 C47.32809822 140.21689575 45.59063118 135.51376483 43.86274719 130.80255127 C38.29856908 115.63220157 32.44665925 100.58624551 26.5 85.5625 C24.56684224 80.67272869 22.63578691 75.7821344 20.70703125 70.890625 C19.99796127 69.09238281 19.99796127 69.09238281 19.27456665 67.2578125 C16.33823994 59.79176 13.46022446 52.30627164 10.63671875 44.796875 C10.12181633 43.4329361 10.12181633 43.4329361 9.59651184 42.04144287 C8.02569962 37.87920151 6.46676923 33.71334976 4.9309082 29.53808594 C0.08385798 16.02904362 0.08385798 16.02904362 -10.4375 6.875 C-11.17226563 6.49472656 -11.90703125 6.11445313 -12.6640625 5.72265625 C-24.62990514 0.65349019 -39.53167616 4.75549262 -51.8125 6.8125 C-52.1425 3.5125 -52.4725 0.2125 -52.8125 -3.1875 C-36.5274888 -10.01114906 -14.65203958 -10.3795338 0 0 Z " fill="#F4F4F4" transform="translate(328.8125,376.1875)"/>
<path d="M0 0 C1.05058594 0.00128906 2.10117188 0.00257813 3.18359375 0.00390625 C10.16773103 0.0816037 16.66206812 0.95986509 23.5 2.375 C23.5 5.675 23.5 8.975 23.5 12.375 C22.33210938 12.26671875 22.33210938 12.26671875 21.140625 12.15625 C0.78090724 9.65755771 0.78090724 9.65755771 -18.4296875 14.59765625 C-24.25586723 19.59937659 -27.54946916 24.84635463 -30.1875 32 C-30.51580811 32.85263428 -30.84411621 33.70526855 -31.18237305 34.58374023 C-32.30385284 37.50847481 -33.40283057 40.44106376 -34.5 43.375 C-35.80641743 46.83929369 -37.11531777 50.3026423 -38.42456055 53.76586914 C-39.12268356 55.6126716 -39.82078131 57.45948456 -40.51675415 59.30709839 C-43.83529683 68.11555472 -47.28694106 76.85971483 -50.875 85.5625 C-55.66077508 97.17735682 -60.17877747 108.88120452 -64.63720703 120.62426758 C-67.30106981 127.63738464 -69.98173341 134.6422589 -72.734375 141.62109375 C-72.99130127 142.27248825 -73.24822754 142.92388275 -73.51293945 143.59501648 C-74.72495489 146.66398568 -75.94153306 149.7310513 -77.16210938 152.79663086 C-77.80116211 154.4093689 -77.80116211 154.4093689 -78.453125 156.0546875 C-78.82598633 156.99038574 -79.19884766 157.92608398 -79.58300781 158.89013672 C-82.73273984 167.42527318 -82.16460693 174.8997122 -78.66796875 183.24609375 C-77.50191793 185.37150411 -76.21334415 186.69111162 -74.5 188.375 C-74.5 189.035 -74.5 189.695 -74.5 190.375 C-73.93410156 190.64183594 -73.36820313 190.90867187 -72.78515625 191.18359375 C-70.36421813 192.44579226 -68.19612731 193.90395369 -65.9375 195.4375 C-43.42201935 209.77096248 -13.3096948 220.9739386 13.6953125 215.7578125 C19.95783236 213.59370013 23.96738393 209.9032217 27.5 204.375 C32.84131646 192.82062215 36.50677018 180.53931573 40.375 168.4375 C40.97347634 166.57862079 41.57243184 164.71989578 42.171875 162.86132812 C43.62009604 158.36763833 45.06187724 153.87193123 46.5 149.375 C47.16 149.375 47.82 149.375 48.5 149.375 C52.63596487 156.30630664 55.37202063 162.93975279 53.76904297 171.09277344 C51.50791126 179.2407522 48.22330597 187.08700619 44.94726562 194.86987305 C43.29296246 198.8764234 41.83276099 202.92862985 40.42822266 207.02832031 C36.97534551 215.75768778 31.27625122 221.54419597 22.94140625 225.62890625 C-1.88150336 235.08996211 -33.00497232 225.82824914 -56.19482422 215.5065918 C-64.15217668 211.83266524 -71.45988606 207.62579603 -78.5 202.375 C-79.25925781 201.81167969 -80.01851562 201.24835938 -80.80078125 200.66796875 C-89.02439574 194.05500568 -93.36015316 185.81172267 -94.5 175.375 C-94.62375 174.281875 -94.7475 173.18875 -94.875 172.0625 C-93.87045332 162.18445764 -89.55299264 152.52023597 -86.0078125 143.3046875 C-85.58545319 142.19745331 -85.16309387 141.09021912 -84.72793579 139.94943237 C-83.36494442 136.3811537 -81.99537104 132.81545042 -80.625 129.25 C-79.9105744 127.38515031 -79.19614965 125.5203003 -78.48188782 123.65538788 C-72.64669402 108.42573387 -66.74329193 93.22568454 -60.62548828 78.10717773 C-60.07838927 76.75507036 -59.53135194 75.40293801 -58.984375 74.05078125 C-58.71241302 73.37863083 -58.44045105 72.70648041 -58.1602478 72.01396179 C-55.75207099 66.0420048 -53.41295828 60.04391294 -51.078125 54.04296875 C-49.92817144 51.09729785 -48.77765361 48.15184778 -47.6270752 45.2064209 C-46.88650582 43.30490696 -46.14902326 41.40218739 -45.41491699 39.49816895 C-35.83794236 14.66663946 -35.83794236 14.66663946 -28.3125 8 C-27.65894531 7.39414062 -27.00539063 6.78828125 -26.33203125 6.1640625 C-17.94567369 0.866198 -9.7509687 -0.2273232 0 0 Z " fill="#F3F3F3" transform="translate(175.5,368.625)"/>
<path d="M0 0 C0 0.33 0 0.66 0 1 C-4.50684775 1.85414834 -8.85669221 2.15360181 -13.4375 2.3125 C-53.59511992 4.32549124 -97.64950258 18.30557381 -126 48 C-126.20381583 50.31546495 -126.20381583 50.31546495 -123.875 52.75 C-122 56 -122 56 -122.625 59.25 C-124.12524575 62.2504915 -124.98537496 63.65212856 -128.1875 64.75 C-131.81225294 65.07220026 -134.57519054 64.14160315 -138 63 C-144.2285409 71.09710317 -148.78568657 79.74198279 -153 89 C-153.30969727 89.68030273 -153.61939453 90.36060547 -153.93847656 91.06152344 C-159.92257017 104.53373419 -163.00826129 118.61555014 -166 133 C-166.18079102 133.86608887 -166.36158203 134.73217773 -166.54785156 135.62451172 C-167.40092145 139.74316029 -168.22237703 143.86632002 -169 148 C-178.60584684 150.04714769 -188.29622364 151.50557859 -198 153 C-195.2258158 110.78979166 -177.47776475 70.80668961 -145.9855957 42.33227539 C-105.18691153 6.60688378 -52.04619926 -0.5858521 0 0 Z " fill="#F6F6F6" transform="translate(251,22)"/>
<path d="M0 0 C54.45 0 108.9 0 165 0 C157.71946683 8.49395536 157.71946683 8.49395536 150.02636719 9.31884766 C148.96063477 9.35026855 147.89490234 9.38168945 146.796875 9.4140625 C145.53689697 9.45289551 144.27691895 9.49172852 142.97875977 9.53173828 C141.56919305 9.56371388 140.1596051 9.59476387 138.75 9.625 C138.01514374 9.643349 137.28028748 9.661698 136.52316284 9.68060303 C102.68113827 10.51614252 68.77882572 10.31503842 34.9375 9.5625 C34.02316193 9.5429425 33.10882385 9.52338501 32.16677856 9.50323486 C29.59930201 9.446304 27.03208848 9.38290978 24.46484375 9.31640625 C23.73308929 9.29968369 23.00133484 9.28296112 22.24740601 9.26573181 C18.54368114 9.15954402 14.84773315 8.96362835 11.15454102 8.66381836 C10.42969009 8.60794052 9.70483917 8.55206268 8.95802307 8.49449158 C5.33498437 7.57950638 4.02517548 5.00707875 2 2 C1.34 1.34 0.68 0.68 0 0 Z " fill="#EFEEEE" transform="translate(152,305)"/>
<path d="M0 0 C2.86262257 2.00992648 4.64014872 3.43748788 5.4453125 6.93359375 C5.65549746 10.6398553 5.2165101 12.63113095 3.3125 15.875 C0.80643379 18.17787165 -0.68899388 19.22999858 -4 20 C-7.8125 19.625 -7.8125 19.625 -11 19 C-10.649375 19.86625 -10.29875 20.7325 -9.9375 21.625 C-8.88428776 25.41656405 -8.8307777 27.25848865 -10 31 C-13.41954507 36.49199663 -13.41954507 36.49199663 -16.96875 37.6328125 C-20.45123131 38.1395915 -23.68070961 38.2447339 -27 37 C-26.649375 37.515625 -26.29875 38.03125 -25.9375 38.5625 C-24.54056604 42.19452829 -24.90790509 44.27402912 -26 48 C-29.01191671 51.8773125 -31.75584634 53.80694167 -36.625 54.5625 C-40.22576515 53.96237247 -42.19387299 53.32507667 -45 51 C-46.85187561 47.9696581 -47 46.06796099 -47 42.5 C-45.9668042 38.8838147 -44.86137792 37.17055287 -41.8203125 34.9375 C-38.54646441 33.25139798 -35.67142174 33.12037448 -32 33 C-31.01 33.33 -30.02 33.66 -29 34 C-29.33 33.01 -29.66 32.02 -30 31 C-30.66611433 25.11599006 -30.66611433 25.11599006 -28.953125 22.24609375 C-27.16567453 20.06435273 -25.54217952 18.27108976 -23 17 C-19.32670036 16.86642547 -16.50147041 16.8328432 -13 18 C-13.495 17.29875 -13.99 16.5975 -14.5 15.875 C-16.30331501 12.41864623 -16.69215112 10.84528402 -16 7 C-11.66553493 0.36199847 -8.04892394 -1.94284371 0 0 Z " fill="#F3F3F3" transform="translate(355,285)"/>
<path d="M0 0 C3.53640714 0.80227022 5.05649435 2.6303048 7.15234375 5.48828125 C9.39957135 9.4720029 9.22744145 12.0901543 8.15234375 16.48828125 C7.82234375 17.14828125 7.49234375 17.80828125 7.15234375 18.48828125 C8.03986328 18.41867187 8.03986328 18.41867187 8.9453125 18.34765625 C12.94916672 18.16477221 15.49299594 18.13756433 19.08984375 20.05078125 C21.74092435 23.1838765 22.59141284 25.42153214 23.15234375 29.48828125 C21.72683394 33.60642071 20.08016454 36.46825913 16.15234375 38.48828125 C12.15768797 39.09616365 10.46051338 38.66014508 6.90234375 36.67578125 C4.15234375 34.48828125 4.15234375 34.48828125 2.15234375 31.48828125 C2.140625 29.296875 2.140625 29.296875 2.46484375 26.92578125 C2.56410156 26.14074219 2.66335937 25.35570312 2.765625 24.546875 C3.15234375 22.48828125 3.15234375 22.48828125 4.15234375 20.48828125 C3.48847656 20.54628906 2.82460937 20.60429687 2.140625 20.6640625 C-5.14122266 21.03612771 -5.14122266 21.03612771 -8.91015625 18.11328125 C-11.60459246 14.46275478 -12.27214008 12.14547434 -12.1796875 7.53125 C-11.84765625 5.48828125 -11.84765625 5.48828125 -9.91015625 2.48828125 C-6.33542153 0.15376061 -4.19808827 -0.24448101 0 0 Z " fill="#F3F2F3" transform="translate(125.84765625,283.51171875)"/>
<path d="M0 0 C2.1139893 3.17098394 2.31174393 5.48461813 2.14453125 9.25 C1.23912407 13.06224077 -1.17441651 14.44468387 -4.375 16.4375 C-7.25 17.75 -7.25 17.75 -9.375 18.4375 C-8.64796875 19.49710937 -8.64796875 19.49710937 -7.90625 20.578125 C-4.11310013 27.6612518 -6.06608735 36.02680946 -8.16992188 43.42089844 C-9.18639893 46.7786516 -10.25960334 50.11122781 -11.375 53.4375 C-14.84 53.9325 -14.84 53.9325 -18.375 54.4375 C-19.21791332 52.04746728 -19.52884404 50.8520692 -18.6328125 48.4375 C-18.25898438 47.7775 -17.88515625 47.1175 -17.5 46.4375 C-14.67801369 41.38555249 -14.19996751 37.37248179 -14.125 31.5625 C-14.09921875 30.36882812 -14.0734375 29.17515625 -14.046875 27.9453125 C-14.40429484 24.12432421 -15.62767535 21.8073404 -17.375 18.4375 C-17.045 17.4475 -16.715 16.4575 -16.375 15.4375 C-17.035 14.4475 -17.695 13.4575 -18.375 12.4375 C-19.09039456 7.9953989 -18.93889235 4.45684387 -16.75 0.5 C-10.94908008 -4.53764099 -6.21889989 -4.09138151 0 0 Z " fill="#F7F7F7" transform="translate(281.375,350.5625)"/>
<path d="M0 0 C3.52592004 2.5856747 4.79547387 4.28415855 6 8.5 C6 12.54272302 5.34054504 13.77424882 3 17 C-1.52484015 20.72506745 -6.05269199 23.68591806 -11.875 24.625 C-15.20862865 23.95827427 -17.30527672 23.06067075 -20 21 C-21.68376389 17.63247222 -21.97761534 14.57832281 -21 11 C-15.94659864 4.81507617 -8.38204444 -1.42673097 0 0 Z " fill="#F5F5F5" transform="translate(305,333)"/>
<path d="M0 0 C2.91863712 3.21798452 3.89612186 5.25986822 4.5 9.5625 C3.91649591 13.57409061 2.88392431 15.19847353 0 18 C-3.60572704 19.20190901 -6.2102435 19.32670315 -10 19 C-13.37202113 16.90185352 -15.91984861 14.88854502 -17 11 C-17.09894723 8.18291421 -16.86171793 5.6901066 -16 3 C-10.8681642 -2.40923233 -6.8167698 -2.79974474 0 0 Z " fill="#F2F2F2" transform="translate(119,265)"/>
<path d="M0 0 C2.98969861 1.30562787 3.81241879 2.32021302 6 5 C6.73994373 8.14760681 6.68576465 10.84548261 6 14 C4.20606332 16.87029869 3.01736724 18.49131638 0 20 C-4.59148587 20.45914859 -7.66979448 20.72130538 -11.4375 17.875 C-14.30829846 14.65410417 -15.08745867 13.2854747 -15 9 C-12.22987089 1.56439028 -8.07266227 -1.59288164 0 0 Z " fill="#F5F5F5" transform="translate(365,264)"/>
<path d="M0 0 C3.14344193 1.57172097 4.51377707 2.85191415 5.88671875 6.09375 C6.5735974 8.47598808 6.97785787 10.52008107 7 13 C5.04045975 16.54224584 2.87443194 18.74650731 -1 20 C-5.64249233 20.49388216 -8.31346236 19.88944842 -12 17 C-14.32482902 14.13271088 -15.01479384 12.71010449 -14.9375 9 C-13.86717935 5.57497392 -12.45027305 3.59877445 -10 1 C-6.78146089 -0.60926955 -3.49021157 -0.45553625 0 0 Z " fill="#F2F2F2" transform="translate(255,355)"/>
<path d="M0 0 C4.91748748 2.5069544 7.27000628 5.38001062 10 10 C8.29220642 14.56118782 7.19048874 17.41598665 2.6875 19.625 C-1.56615628 20.05757521 -4.0784543 19.70180285 -8 18 C-10.96038075 15.27333352 -11.89299721 13.37450977 -13 9.5 C-13 6 -13 6 -11.1875 3.125 C-7.53457568 -0.42355505 -5.04443121 -0.42036927 0 0 Z " fill="#F3F3F3" transform="translate(175,333)"/>
<path d="M0 0 C2.77482064 1.2949163 4.48738004 2.3475746 6.375 4.75 C7.31840286 8.14625031 6.83569266 10.59753701 6 14 C4.17660948 16.70567626 2.92542564 18.53728718 0 20 C-4.64714337 20.41307941 -7.30705755 19.89446841 -11 17 C-13.54357983 13.94770421 -14.00903645 12.50604099 -13.9375 8.5 C-12.92483745 4.71939315 -11.70604174 2.788043 -9 0 C-5.84760408 -1.57619796 -3.38428252 -0.68832865 0 0 Z " fill="#F2F2F2" transform="translate(158,319)"/>
<path d="M0 0 C2.8100346 1.79363911 4.50940468 3.01880935 6 6 C6.5811138 13.08958838 6.5811138 13.08958838 4.125 16.9375 C1.41743462 19.5654311 0.54350183 19.94774021 -3.25 20.3125 C-7.63436813 19.94713599 -9.61562477 18.73973233 -13 16 C-14.60086627 12.79826746 -14.49917089 9.47422941 -14 6 C-10.32759145 0.24655994 -6.71744997 -0.96515086 0 0 Z M3 11 C4 13 4 13 4 13 Z " fill="#F5F5F5" transform="translate(229,354)"/>
<path d="M0 0 C2.8125 2.5 2.8125 2.5 5 5 C5.33 5.33 5.66 5.66 6 6 C6.47188982 10.71889824 6.66041173 12.94334124 4.125 17 C-0.25379133 19.80242645 -3.93407678 19.90707409 -9 19 C-12.43238723 16.90708096 -12.86428892 15.48855989 -13.9375 11.625 C-14.01016918 7.41018731 -13.36432847 5.46768176 -11 2 C-7.20255861 -1.18164009 -4.69210947 -1.56403649 0 0 Z " fill="#F3F3F3" transform="translate(207,348)"/>
<path d="M0 0 C3.68413296 0.81795732 5.16912539 2.35506728 7.1640625 5.48046875 C7.1640625 10.87835651 5.15879161 15.53700966 3.1640625 20.48046875 C-4.84420196 21.26559272 -4.84420196 21.26559272 -8.8359375 18.10546875 C-11.60905888 14.46574694 -12.26113421 12.17324111 -12.16796875 7.5234375 C-11.8359375 5.48046875 -11.8359375 5.48046875 -9.8984375 2.48046875 C-6.32886041 0.14931636 -4.19298127 -0.25943195 0 0 Z " fill="#F5F5F5" transform="translate(125.8359375,283.51953125)"/>
<path d="M0 0 C0.66 0 1.32 0 2 0 C2.33 0.66 2.66 1.32 3 2 C4.98 2 6.96 2 9 2 C8.34 2.66 7.68 3.32 7 4 C7.4846875 4.70640625 7.969375 5.4128125 8.46875 6.140625 C12.26189987 13.2237518 10.30891265 21.58930946 8.20507812 28.98339844 C7.18860107 32.3411516 6.11539666 35.67372781 5 39 C1.535 39.495 1.535 39.495 -2 40 C-2.84291332 37.60996728 -3.15384404 36.4145692 -2.2578125 34 C-1.88398438 33.34 -1.51015625 32.68 -1.125 32 C1.69698631 26.94805249 2.17503249 22.93498179 2.25 17.125 C2.27578125 15.93132812 2.3015625 14.73765625 2.328125 13.5078125 C1.97047188 9.68433036 0.81224293 7.34419229 -1 4 C-0.6875 1.625 -0.6875 1.625 0 0 Z " fill="#E5E5E5" transform="translate(265,365)"/>
<path d="M0 0 C1.98 0 3.96 0 6 0 C5.835 0.9075 5.67 1.815 5.5 2.75 C4.31725524 11.2520493 4.77512002 19.38800453 6.7578125 27.72265625 C7 30 7 30 5 33 C3.10546875 32.6875 3.10546875 32.6875 1 32 C-1.96595993 26.72718235 -2.43258369 21.37394577 -2.875 15.4375 C-2.93647217 14.71755859 -2.99794434 13.99761719 -3.0612793 13.25585938 C-3.35088497 8.03459744 -2.36483597 4.66228024 0 0 Z " fill="#EAEAEA" transform="translate(204,368)"/>
<path d="M0 0 C8.22104485 1.41742153 15.45299175 4.58613282 23 8 C23 8.66 23 9.32 23 10 C15.18803713 15.17325541 15.18803713 15.17325541 11 14.5625 C10.01 14.046875 9.02 13.53125 8 13 C6.37780338 12.28526981 4.75263179 11.57726481 3.125 10.875 C1.74875833 10.25273891 0.37332284 9.62867668 -1 9 C-0.67 6.03 -0.34 3.06 0 0 Z " fill="#ECEBEC" transform="translate(211,375)"/>
<path d="M0 0 C3 1.25 3 1.25 5 4.25 C5.50451649 7.52935719 5.27522753 8.83165416 3.4375 11.625 C1 13.25 1 13.25 -2.625 13.1875 C-6 12.25 -6 12.25 -8 9.25 C-8.54954205 3.97439634 -8.54954205 3.97439634 -6.625 1.4375 C-3.89240131 -0.55939904 -3.45069136 -0.86267284 0 0 Z " fill="#EDEDEE" transform="translate(363,72.75)"/>
<path d="M0 0 C1.42662219 2.85324437 1.31033868 4.83454549 1 8 C-0.625 10.875 -0.625 10.875 -3 13 C-6.25 13.3125 -6.25 13.3125 -9 13 C-9.75 9.8125 -9.75 9.8125 -10 6 C-7.06821873 1.34958834 -5.52818721 0 0 0 Z " fill="#F4F4F4" transform="translate(193,345)"/>
<path d="M0 0 C11.22 0 22.44 0 34 0 C34 0.33 34 0.66 34 1 C28.23900697 2.16989449 22.4809405 2.33204041 16.625 2.5625 C15.60277344 2.60568359 14.58054688 2.64886719 13.52734375 2.69335938 C11.01834712 2.79887792 8.50926057 2.90099213 6 3 C6 2.34 6 1.68 6 1 C4.02 1 2.04 1 0 1 C0 0.67 0 0.34 0 0 Z " fill="#C8C9C9" transform="translate(217,22)"/>
<path d="M0 0 C10.89 0 21.78 0 33 0 C33 0.33 33 0.66 33 1 C22.06028181 2.46560818 11.01045894 2.09470423 0 2 C0 1.34 0 0.68 0 0 Z " fill="#CBCBCB" transform="translate(210,176)"/>
<path d="M0 0 C2 3 2 3 1.8125 5.875 C0.98580683 9.05458912 -0.16819356 11.29211222 -2 14 C-2.66 13.67 -3.32 13.34 -4 13 C-4 9 -4 9 -2 7 C-1.28072705 4.68234271 -0.6090107 2.34904126 0 0 Z " fill="#C5C5C4" transform="translate(133,291)"/>
<path d="M0 0 C0.99 0.33 1.98 0.66 3 1 C2.50168276 4.68754757 1.89932357 6.60490662 -1 9 C-1.99 8.67 -2.98 8.34 -4 8 C-2.25 2.25 -2.25 2.25 0 0 Z M0 1 C1 3 1 3 1 3 Z " fill="#B5B5B4" transform="translate(232,364)"/>
<path d="M0 0 C2.97246802 2.54782974 4.41535288 5.45340883 6 9 C6 9.66 6 10.32 6 11 C5.01 11.33 4.02 11.66 3 12 C2.49440092 10.56445975 1.9957251 9.1264798 1.5 7.6875 C1.2215625 6.88699219 0.943125 6.08648437 0.65625 5.26171875 C0 3 0 3 0 0 Z " fill="#C2C2C3" transform="translate(437,228)"/>
<path d="M0 0 C3.96 0.33 7.92 0.66 12 1 C11.67 2.32 11.34 3.64 11 5 C9.53932801 4.54917531 8.08151968 4.08906463 6.625 3.625 C5.81289063 3.36976563 5.00078125 3.11453125 4.1640625 2.8515625 C2 2 2 2 0 0 Z " fill="#C6C7C7" transform="translate(363,258)"/>
<path d="M0 0 C1.32 0.66 2.64 1.32 4 2 C3.67 3.65 3.34 5.3 3 7 C2.01 6.67 1.02 6.34 0 6 C-0.38218767 4.34385343 -0.71395102 2.67542976 -1 1 C-0.67 0.67 -0.34 0.34 0 0 Z " fill="#DBDADA" transform="translate(266,59)"/>
<path d="M0 0 C0.33 0.66 0.66 1.32 1 2 C-4.41538462 5.07692308 -4.41538462 5.07692308 -7.375 4.6875 C-7.91125 4.460625 -8.4475 4.23375 -9 4 C-9 3.34 -9 2.68 -9 2 C-6.03 1.34 -3.06 0.68 0 0 Z " fill="#D7D7D8" transform="translate(109,257)"/>
<path d="M0 0 C1.98 0.66 3.96 1.32 6 2 C4.625 4 4.625 4 3 6 C2.34 6 1.68 6 1 6 C0.67 4.02 0.34 2.04 0 0 Z " fill="#D5D5D6" transform="translate(211,390)"/>
<path d="M0 0 C-0.33 1.65 -0.66 3.3 -1 5 C-1.99 5 -2.98 5 -4 5 C-4 3.68 -4 2.36 -4 1 C-2 0 -2 0 0 0 Z " fill="#D4D4D4" transform="translate(133,299)"/>
</svg>
